<svg width="113" height="15" viewBox="0 0 113 15" fill="none" xmlns="http://www.w3.org/2000/svg">
<g filter="url(#filter0_b_47_51)">
<path d="M5.30784 0.738C6.70117 0.738 7.92351 1.01033 8.97484 1.555C10.0388 2.09967 10.8558 2.87867 11.4258 3.892C12.0085 4.89267 12.2998 6.058 12.2998 7.388C12.2998 8.718 12.0085 9.88333 11.4258 10.884C10.8558 11.872 10.0388 12.6383 8.97484 13.183C7.92351 13.7277 6.70117 14 5.30784 14H0.67184V0.738H5.30784ZM5.21284 11.739C6.60617 11.739 7.68284 11.359 8.44284 10.599C9.20284 9.839 9.58284 8.76867 9.58284 7.388C9.58284 6.00733 9.20284 4.93067 8.44284 4.158C7.68284 3.37267 6.60617 2.98 5.21284 2.98H3.33184V11.739H5.21284ZM22.423 11.473H17.141L16.267 14H13.474L18.243 0.718999H21.34L26.109 14H23.297L22.423 11.473ZM21.701 9.345L19.782 3.797L17.863 9.345H21.701ZM34.7316 14L31.8056 8.832H30.5516V14H27.8916V0.738H32.8696C33.8956 0.738 34.7696 0.921666 35.4916 1.289C36.2136 1.64367 36.7519 2.13133 37.1066 2.752C37.4739 3.36 37.6576 4.044 37.6576 4.804C37.6576 5.678 37.4042 6.46967 36.8976 7.179C36.3909 7.87567 35.6372 8.357 34.6366 8.623L37.8096 14H34.7316ZM30.5516 6.837H32.7746C33.4966 6.837 34.0349 6.666 34.3896 6.324C34.7442 5.96933 34.9216 5.48167 34.9216 4.861C34.9216 4.253 34.7442 3.78433 34.3896 3.455C34.0349 3.113 33.4966 2.942 32.7746 2.942H30.5516V6.837ZM48.0054 14L45.1364 9.535L42.5334 14H39.5314L43.7114 7.312L39.4744 0.738H42.5334L45.4024 5.184L47.9864 0.738H50.9884L46.8274 7.407L51.0644 14H48.0054ZM61.2778 0.738V2.885H55.7488V6.286H59.9858V8.395H55.7488V14H53.0888V0.738H61.2778ZM69.32 14.133C68.0787 14.133 66.9387 13.8417 65.9 13.259C64.8614 12.6763 64.038 11.872 63.43 10.846C62.822 9.80733 62.518 8.63567 62.518 7.331C62.518 6.039 62.822 4.88 63.43 3.854C64.038 2.81533 64.8614 2.00467 65.9 1.422C66.9387 0.839333 68.0787 0.548 69.32 0.548C70.574 0.548 71.714 0.839333 72.74 1.422C73.7787 2.00467 74.5957 2.81533 75.191 3.854C75.799 4.88 76.103 6.039 76.103 7.331C76.103 8.63567 75.799 9.80733 75.191 10.846C74.5957 11.872 73.7787 12.6763 72.74 13.259C71.7014 13.8417 70.5614 14.133 69.32 14.133ZM69.32 11.758C70.118 11.758 70.821 11.5807 71.429 11.226C72.037 10.8587 72.512 10.3393 72.854 9.668C73.196 8.99667 73.367 8.21767 73.367 7.331C73.367 6.44433 73.196 5.67167 72.854 5.013C72.512 4.34167 72.037 3.82867 71.429 3.474C70.821 3.11933 70.118 2.942 69.32 2.942C68.522 2.942 67.8127 3.11933 67.192 3.474C66.584 3.82867 66.109 4.34167 65.767 5.013C65.425 5.67167 65.254 6.44433 65.254 7.331C65.254 8.21767 65.425 8.99667 65.767 9.668C66.109 10.3393 66.584 10.8587 67.192 11.226C67.8127 11.5807 68.522 11.758 69.32 11.758ZM84.922 14L81.996 8.832H80.742V14H78.082V0.738H83.06C84.086 0.738 84.96 0.921666 85.682 1.289C86.404 1.64367 86.9423 2.13133 87.297 2.752C87.6643 3.36 87.848 4.044 87.848 4.804C87.848 5.678 87.5947 6.46967 87.088 7.179C86.5813 7.87567 85.8277 8.357 84.827 8.623L88 14H84.922ZM80.742 6.837H82.965C83.687 6.837 84.2253 6.666 84.58 6.324C84.9347 5.96933 85.112 5.48167 85.112 4.861C85.112 4.253 84.9347 3.78433 84.58 3.455C84.2253 3.113 83.687 2.942 82.965 2.942H80.742V6.837ZM99.4879 4.728C99.1839 4.17067 98.7659 3.74633 98.2339 3.455C97.7019 3.16367 97.0812 3.018 96.3719 3.018C95.5865 3.018 94.8899 3.19533 94.2819 3.55C93.6739 3.90467 93.1989 4.41133 92.8569 5.07C92.5149 5.72867 92.3439 6.48867 92.3439 7.35C92.3439 8.23667 92.5149 9.00933 92.8569 9.668C93.2115 10.3267 93.6992 10.8333 94.3199 11.188C94.9405 11.5427 95.6625 11.72 96.4859 11.72C97.4992 11.72 98.3289 11.454 98.9749 10.922C99.6209 10.3773 100.045 9.62367 100.248 8.661H95.6879V6.628H102.87V8.946C102.693 9.87067 102.313 10.7257 101.73 11.511C101.147 12.2963 100.394 12.9297 99.4689 13.411C98.5569 13.8797 97.5309 14.114 96.3909 14.114C95.1115 14.114 93.9525 13.829 92.9139 13.259C91.8879 12.6763 91.0772 11.872 90.4819 10.846C89.8992 9.82 89.6079 8.65467 89.6079 7.35C89.6079 6.04533 89.8992 4.88 90.4819 3.854C91.0772 2.81533 91.8879 2.011 92.9139 1.441C93.9525 0.858333 95.1052 0.567 96.3719 0.567C97.8665 0.567 99.1649 0.934333 100.267 1.669C101.369 2.391 102.129 3.41067 102.547 4.728H99.4879ZM107.498 2.885V6.21H111.963V8.319H107.498V11.834H112.533V14H104.838V0.718999H112.533V2.885H107.498Z" fill="#1C1C1C"/>
</g>
<defs>
<filter id="filter0_b_47_51" x="-254.328" y="-254.452" width="621.861" height="523.585" filterUnits="userSpaceOnUse" color-interpolation-filters="sRGB">
<feFlood flood-opacity="0" result="BackgroundImageFix"/>
<feGaussianBlur in="BackgroundImageFix" stdDeviation="127.5"/>
<feComposite in2="SourceAlpha" operator="in" result="effect1_backgroundBlur_47_51"/>
<feBlend mode="normal" in="SourceGraphic" in2="effect1_backgroundBlur_47_51" result="shape"/>
</filter>
</defs>
</svg>
