<svg width="1280" height="919" viewBox="0 0 1280 919" fill="none" xmlns="http://www.w3.org/2000/svg">
<g filter="url(#filter0_d_61_2)">
<path d="M22 214C22 169.817 57.8172 134 102 134H1174C1218.18 134 1254 169.817 1254 214V477.5C1254 521.683 1218.17 557.5 1173.99 557.5C1103.39 557.5 1045.54 557.5 973.029 557.5C937.13 557.5 908 586.591 908 622.49C908 636.414 908 651.656 908 667.25C908 677.408 908 687.416 908 697.008C908 741.191 872.183 777 828 777H102C57.8172 777 22 741.183 22 697V214Z" fill="url(#paint0_linear_61_2)"/>
</g>
<defs>
<filter id="filter0_d_61_2" x="-115.7" y="0.300003" width="1507.4" height="918.4" filterUnits="userSpaceOnUse" color-interpolation-filters="sRGB">
<feFlood flood-opacity="0" result="BackgroundImageFix"/>
<feColorMatrix in="SourceAlpha" type="matrix" values="0 0 0 0 0 0 0 0 0 0 0 0 0 0 0 0 0 0 127 0" result="hardAlpha"/>
<feOffset dy="4"/>
<feGaussianBlur stdDeviation="68.85"/>
<feComposite in2="hardAlpha" operator="out"/>
<feColorMatrix type="matrix" values="0 0 0 0 0.945098 0 0 0 0 0.988235 0 0 0 0 1 0 0 0 0.45 0"/>
<feBlend mode="normal" in2="BackgroundImageFix" result="effect1_dropShadow_61_2"/>
<feBlend mode="normal" in="SourceGraphic" in2="effect1_dropShadow_61_2" result="shape"/>
</filter>
<linearGradient id="paint0_linear_61_2" x1="638" y1="134" x2="638" y2="777" gradientUnits="userSpaceOnUse">
<stop stop-color="#F0FBFF"/>
<stop offset="1" stop-color="#F0FBFF"/>
</linearGradient>
</defs>
</svg>
